<svg width="1920" height="1080" viewBox="0 0 1920 1080" xmlns="http://www.w3.org/2000/svg"><rect width="1920" height="1080" fill="#0080ff"/><path d="M 0,1080 C 0,1080 0,120 0,120 C 43.25132960478065,133.86524622234185 86.5026592095613,147.73049244468368 122,155 C 157.4973407904387,162.26950755531632 185.24069276653546,162.9432764436071 224,144 C 262.75930723346454,125.0567235563929 312.5345697242968,86.49640178088791 352,79 C 391.4654302757032,71.50359821911209 420.6210283362776,95.07111643284121 449,107 C 477.3789716637224,118.92888356715879 504.9813169305927,119.21913248774727 549,118 C 593.0186830694073,116.78086751225273 653.4537039413519,114.05235361616974 689,111 C 724.5462960586481,107.94764638383026 735.2038673039998,104.57145304757374 771,112 C 806.7961326960002,119.42854695242626 867.7308268426489,137.6618341935353 916,144 C 964.2691731573511,150.3381658064647 999.8728253254048,144.78121017828505 1034,144 C 1068.1271746745952,143.21878982171495 1100.777871855732,147.21332509332447 1141,153 C 1181.222128144268,158.78667490667553 1229.015687251667,166.36548944841704 1262,150 C 1294.984312748333,133.63451055158296 1313.1593791375992,93.32471711300744 1347,75 C 1380.8406208624008,56.67528288699257 1430.346796197936,60.33564209955327 1474,77 C 1517.653203802064,93.66435790044673 1555.4534360706564,123.33271448877954 1596,132 C 1636.5465639293436,140.66728551122046 1679.8394595194386,128.33349994532858 1711,123 C 1742.1605404805614,117.66650005467143 1761.1887258515887,119.33328572990612 1794,120 C 1826.8112741484113,120.66671427009388 1873.4056370742055,120.33335713504694 1920,120 C 1920,120 1920,1080 1920,1080 Z" fill="#2fb4fb" opacity="0.06666666666666667"/><path d="M 0,1080 C 0,1080 0,240 0,240 C 43.70377203346588,262.87963411868213 87.40754406693176,285.7592682373643 126,278 C 164.59245593306824,270.2407317626357 198.0735957657388,231.84256116922487 235,230 C 271.9264042342612,228.15743883077513 312.29807287011306,262.8704870857362 349,269 C 385.70192712988694,275.1295129142638 418.73411275380886,252.67549048783025 450,254 C 481.26588724619114,255.32450951216975 510.7654761146515,280.4275509629428 553,282 C 595.2345238853485,283.5724490370572 650.2039827875856,261.61430566039854 690,240 C 729.7960172124144,218.38569433960146 754.4185927350065,197.1152263954631 791,208 C 827.5814072649935,218.8847736045369 876.1216462723885,261.9247887577492 912,263 C 947.8783537276115,264.0752112422508 971.0948221754402,223.18561857354015 1006,226 C 1040.9051778245598,228.81438142645985 1087.4990650258508,275.3327369480901 1125,283 C 1162.5009349741492,290.6672630519099 1190.9089177211574,259.48343363409964 1229,247 C 1267.0910822788426,234.51656636590036 1314.8652640895195,240.73352851551144 1361,233 C 1407.1347359104805,225.26647148448856 1451.6300259207642,203.58245230385467 1483,215 C 1514.3699740792358,226.41754769614533 1532.6146322274237,270.9366622690699 1569,271 C 1605.3853677725763,271.0633377309301 1659.91144516954,226.6708986198658 1706,213 C 1752.08855483046,199.3291013801342 1789.739587094417,216.37974325146692 1824,226 C 1858.260412905583,235.62025674853308 1889.1302064527915,237.81012837426653 1920,240 C 1920,240 1920,1080 1920,1080 Z" fill="#2fb4fb" opacity="0.13333333333333333"/><path d="M 0,1080 C 0,1080 0,360 0,360 C 43.01297529025153,350.2430517274903 86.02595058050306,340.48610345498065 125,339 C 163.97404941949694,337.51389654501935 198.90917296823937,344.2986379075678 230,357 C 261.0908270317606,369.7013620924322 288.3373575465393,388.31934491474806 329,399 C 369.6626424534607,409.68065508525194 423.74139684560356,412.4239824334401 463,404 C 502.25860315439644,395.5760175665599 526.6970550710465,375.9847253514915 562,367 C 597.3029449289535,358.0152746485085 643.4703828702102,359.63711616059396 680,355 C 716.5296171297898,350.36288383940604 743.4214134481132,339.46681000613256 784,331 C 824.5785865518868,322.53318999386744 878.8439633373375,316.49564381487573 918,334 C 957.1560366626625,351.50435618512427 981.2027332025364,392.5506147343645 1009,396 C 1036.7972667974636,399.4493852656355 1068.345103852517,365.30189724766615 1114,350 C 1159.654896147483,334.69810275233385 1219.4168513873956,338.24179627497085 1263,333 C 1306.5831486126044,327.75820372502915 1333.9874905979,313.7309176524505 1360,334 C 1386.0125094021,354.2690823475495 1410.6331862210045,408.8345331152274 1449,404 C 1487.3668137789955,399.1654668847726 1539.4797645180813,334.93094988664006 1583,324 C 1626.5202354819187,313.06905011335994 1661.4477557066705,355.4416673382123 1702,372 C 1742.5522442933295,388.5583326617877 1788.729212655237,379.30238076051074 1826,373 C 1863.270787344763,366.69761923948926 1891.6353936723815,363.34880961974466 1920,360 C 1920,360 1920,1080 1920,1080 Z" fill="#2fb4fb" opacity="0.2"/><path d="M 0,1080 C 0,1080 0,480 0,480 C 35.666284016682766,497.6350438825469 71.33256803336553,515.2700877650938 109,520 C 146.66743196663447,524.7299122349062 186.33601188322058,516.554692822172 223,513 C 259.6639881167794,509.445307177828 293.32338443375227,510.51114094621846 334,501 C 374.67661556624773,491.48885905378154 422.37045038177024,471.4007433929539 457,463 C 491.62954961822976,454.5992566070461 513.1948140391668,457.8858854819654 548,464 C 582.8051859608332,470.1141145180346 630.8502934615627,479.05571467918423 674,479 C 717.1497065384373,478.94428532081577 755.4040121145822,469.8912558012975 792,468 C 828.5959878854178,466.1087441987025 863.5336580801085,471.3792621156261 896,481 C 928.4663419198915,490.6207378843739 958.4613555649844,504.59169573619835 996,496 C 1033.5386444350156,487.40830426380165 1078.6209196599536,456.2539549395805 1125,452 C 1171.3790803400464,447.7460450604195 1219.054965795201,470.39248450547933 1254,482 C 1288.945034204799,493.60751549452067 1311.159217159243,494.1761070385022 1351,499 C 1390.840782840757,503.8238929614978 1448.3081655678272,512.9030873405118 1483,500 C 1517.6918344321728,487.09691265948817 1529.6081205694481,452.2115435994504 1560,436 C 1590.3918794305519,419.7884564005496 1639.2593521543797,422.25073826168637 1685,439 C 1730.7406478456203,455.74926173831363 1773.3544708130344,486.7855033538039 1812,496 C 1850.6455291869656,505.2144966461961 1885.3227645934828,492.607248323098 1920,480 C 1920,480 1920,1080 1920,1080 Z" fill="#2fb4fb" opacity="0.26666666666666666"/><path d="M 0,1080 C 0,1080 0,600 0,600 C 39.077031184996414,620.4956605908731 78.15406236999283,640.9913211817462 117,640 C 155.84593763000717,639.0086788182538 194.460781705025,616.5303758638881 231,609 C 267.539218294975,601.4696241361119 302.00281080990715,608.8871753627009 333,622 C 363.99718919009285,635.1128246372991 391.5279750553463,653.9209226853086 435,644 C 478.4720249446537,634.0790773146914 537.8852889687079,595.4291338960646 578,582 C 618.1147110312921,568.5708661039354 638.9308690698226,580.3625417304328 670,601 C 701.0691309301774,621.6374582695672 742.3912347520017,651.1206991822042 782,643 C 821.6087652479983,634.8793008177958 859.5041919221708,589.15466154075 896,574 C 932.4958080778292,558.84533845925 967.5919975593156,574.260654654796 1011,581 C 1054.4080024406844,587.739345345204 1106.1278178405662,585.8027198400658 1148,585 C 1189.8721821594338,584.1972801599342 1221.8967310784203,584.5284659849408 1254,602 C 1286.1032689215797,619.4715340150592 1318.2852578457528,654.0834162201713 1353,641 C 1387.7147421542472,627.9165837798287 1424.9622375385688,567.137869134374 1461,565 C 1497.0377624614312,562.862130865626 1531.865791999971,619.3651072423327 1574,639 C 1616.134208000029,658.6348927576673 1665.5745944615462,641.401701896295 1702,637 C 1738.4254055384538,632.598298103705 1761.835830153844,641.0280851724872 1796,637 C 1830.164169846156,632.9719148275128 1875.0820849230781,616.4859574137564 1920,600 C 1920,600 1920,1080 1920,1080 Z" fill="#2fb4fb" opacity="0.3333333333333333"/><path d="M 0,1080 C 0,1080 0,720 0,720 C 38.64285150368744,702.4075503643206 77.28570300737488,684.8151007286413 113,687 C 148.71429699262512,689.1848992713587 181.50003947418793,711.1471474497558 224,727 C 266.49996052581207,742.8528525502442 318.7141390958734,752.5963094723354 353,740 C 387.2858609041266,727.4036905276646 403.6434041423183,692.4676146609029 442,684 C 480.3565958576817,675.5323853390971 540.7122443348534,693.5332318840533 584,700 C 627.2877556651466,706.4667681159467 653.5076185182681,701.3994578028842 685,703 C 716.4923814817319,704.6005421971158 753.257281592074,712.8689369044101 791,708 C 828.742718407926,703.1310630955899 867.4632551134358,685.1247945794752 900,678 C 932.5367448865642,670.8752054205248 958.8896979541835,674.6318847776894 998,685 C 1037.1103020458165,695.3681152223106 1088.9779530698308,712.3476663097673 1136,730 C 1183.0220469301692,747.6523336902327 1225.1984897664934,765.9774499832416 1257,751 C 1288.8015102335066,736.0225500167584 1310.2280878641964,687.7425337572662 1345,684 C 1379.7719121358036,680.2574662427338 1427.889158776721,721.052414987694 1471,740 C 1514.110841223279,758.947585012306 1552.2152770289201,756.0478062919583 1585,754 C 1617.7847229710799,751.9521937080417 1645.249733107598,750.7563598444727 1683,738 C 1720.750266892402,725.2436401555273 1768.785790540686,700.9267543301506 1810,696 C 1851.214209459314,691.0732456698494 1885.6071047296568,705.5366228349246 1920,720 C 1920,720 1920,1080 1920,1080 Z" fill="#2fb4fb" opacity="0.4"/><path d="M 0,1080 C 0,1080 0,840 0,840 C 46.40885658916872,848.6378632062825 92.81771317833744,857.2757264125651 124,864 C 155.18228682166256,870.7242735874349 171.13800387581898,875.534957556022 210,861 C 248.86199612418102,846.465042443978 310.6302713183866,812.5844433633464 358,815 C 405.3697286816134,817.4155566366536 438.3409108506349,856.127268990592 466,855 C 493.6590891493651,853.872731009408 516.0060852790741,812.9064806742853 554,812 C 591.9939147209259,811.0935193257147 645.6347480330686,850.2468083122667 684,865 C 722.3652519669314,879.7531916877333 745.4549225886518,870.106286076648 780,872 C 814.5450774113482,873.893713923352 860.5455616123246,887.3280473811417 903,876 C 945.4544383876754,864.6719526188583 984.3628309620497,828.5815243987848 1023,817 C 1061.6371690379503,805.4184756012152 1100.0031145394773,818.3458550237193 1136,837 C 1171.9968854605227,855.6541449762807 1205.6247108800408,880.0350555063378 1240,867 C 1274.3752891199592,853.9649444936622 1309.4980419403591,803.5139229509294 1353,800 C 1396.5019580596409,796.4860770490706 1448.3831213585229,839.9092526899443 1482,865 C 1515.6168786414771,890.0907473100557 1530.9694726255505,896.8490662892932 1567,879 C 1603.0305273744495,861.1509337107068 1659.7389881392749,818.6944821528826 1706,818 C 1752.2610118607251,817.3055178471174 1788.07457481735,858.3730050991762 1822,869 C 1855.92542518265,879.6269949008238 1887.962712591325,859.8134974504119 1920,840 C 1920,840 1920,1080 1920,1080 Z" fill="#2fb4fb" opacity="0.4666666666666667"/><path d="M 0,1080 C 0,1080 0,960 0,960 C 36.43481050809389,978.0581409263198 72.86962101618778,996.1162818526394 112,993 C 151.13037898381222,989.8837181473606 192.9563264433427,965.593013515762 224,960 C 255.0436735566573,954.406986484238 275.30507321044144,967.5116640843124 319,975 C 362.69492678955856,982.4883359156876 429.8233807148915,984.3603301469884 472,978 C 514.1766192851085,971.6396698530116 531.4014039299923,957.0470153277337 557,952 C 582.5985960700077,946.9529846722663 616.5710035651393,951.451608542077 657,961 C 697.4289964348607,970.548391457923 744.3145818094505,985.1465505039583 792,980 C 839.6854181905495,974.8534494960417 888.1706691970589,949.96218944209 921,932 C 953.8293308029411,914.03781055791 971.0027414023145,903.0046917276819 1004,925 C 1036.9972585976855,946.9953082723181 1085.818365193683,1002.0190436471822 1124,1001 C 1162.181634806317,999.9809563528178 1189.723797822954,942.9191336835892 1228,932 C 1266.276202177046,921.0808663164108 1315.286443514501,956.3044216184611 1361,955 C 1406.713556485499,953.6955783815389 1449.1304281190426,915.863179842567 1481,915 C 1512.8695718809574,914.136820157433 1534.1918440093286,950.2428590112708 1572,953 C 1609.8081559906714,955.7571409887292 1664.1021958436424,925.1653841123501 1705,923 C 1745.8978041563576,920.8346158876499 1773.3993726161023,947.0956045393285 1807,958 C 1840.6006273838977,968.9043954606715 1880.3003136919488,964.4521977303357 1920,960 C 1920,960 1920,1080 1920,1080 Z" fill="#2fb4fb" opacity="0.5333333333333333"/></svg>